<?xml version="1.0" standalone="no"?>
<!DOCTYPE svg PUBLIC "-//W3C//DTD SVG 20010904//EN"
 "http://www.w3.org/TR/2001/REC-SVG-20010904/DTD/svg10.dtd">
<svg version="1.0" xmlns="http://www.w3.org/2000/svg"
 width="400.000000pt" height="400.000000pt" viewBox="0 0 400.000000 400.000000"
 preserveAspectRatio="xMidYMid meet">
<metadata>
Created by potrace 1.11, written by Peter Selinger 2001-2013
</metadata>
<g transform="translate(0.000000,400.000000) scale(0.100000,-0.100000)"
fill="#000000" stroke="none">
<path d="M648 3235 c-33 -17 -88 -81 -88 -100 0 -4 -9 -19 -20 -35 -11 -15
-17 -30 -13 -34 3 -3 1 -6 -5 -6 -6 0 -9 -7 -6 -15 4 -8 1 -15 -5 -15 -10 0
-35 -48 -31 -59 1 -2 -3 -7 -10 -11 -6 -4 -12 -13 -14 -21 -1 -8 -8 -25 -16
-39 -8 -14 -26 -51 -42 -82 -15 -32 -32 -58 -38 -58 -6 0 -8 -5 -5 -10 3 -6
-3 -23 -14 -39 -22 -31 -45 -81 -43 -93 1 -5 -2 -8 -6 -8 -5 0 -17 -20 -28
-45 -10 -25 -22 -45 -26 -45 -4 0 -8 -5 -8 -12 0 -16 -90 -198 -108 -220 -8
-10 -11 -18 -6 -18 5 0 5 -4 -1 -8 -15 -11 -57 -92 -48 -92 4 0 3 -4 -2 -8 -6
-4 -24 -34 -39 -67 -24 -51 -27 -69 -23 -119 3 -32 9 -62 14 -65 5 -3 20 -30
33 -58 14 -29 28 -53 33 -53 4 0 5 -4 2 -10 -3 -5 -1 -10 4 -10 6 0 10 -3 9
-7 -1 -5 10 -32 24 -60 15 -29 25 -53 23 -53 -3 0 2 -8 11 -18 8 -10 30 -50
47 -88 18 -38 40 -80 49 -93 9 -13 15 -28 13 -31 -3 -4 2 -13 10 -20 8 -7 15
-18 15 -26 0 -7 6 -19 13 -26 7 -7 14 -16 15 -21 1 -4 15 -34 32 -67 17 -33
27 -60 23 -60 -5 0 -2 -4 5 -8 7 -5 45 -73 86 -153 123 -241 129 -251 169
-277 l39 -26 596 -1 c720 -1 657 -14 744 155 23 47 46 87 51 88 4 2 7 9 7 16
0 7 17 44 38 82 20 38 64 123 97 189 33 66 66 126 73 133 7 7 10 18 7 23 -4 5
-1 9 6 9 7 0 10 3 7 6 -3 3 11 35 31 72 20 37 56 108 81 157 24 50 47 92 50
95 4 3 12 20 19 38 8 17 18 32 23 32 5 0 6 5 3 10 -3 6 1 17 9 26 9 9 14 19
11 24 -3 4 2 13 10 20 10 8 15 31 15 72 0 49 -6 71 -40 133 -21 41 -36 75 -32
75 4 0 3 4 -3 8 -12 8 -36 52 -110 198 -30 59 -58 111 -63 116 -13 13 -42 -2
-42 -22 0 -10 -3 -20 -7 -22 -8 -3 -15 -16 -101 -178 -24 -47 -48 -90 -53 -96
-5 -6 8 -43 31 -90 45 -90 49 -128 19 -194 -11 -25 -19 -45 -17 -45 2 0 -7
-13 -19 -29 -13 -16 -20 -32 -17 -37 3 -5 0 -9 -7 -9 -7 0 -9 -3 -6 -7 4 -3 0
-15 -10 -25 -9 -10 -12 -18 -7 -18 5 0 5 -4 -1 -8 -5 -4 -23 -34 -40 -67 -16
-33 -53 -104 -81 -157 -29 -54 -50 -98 -47 -98 2 0 -3 -7 -11 -16 -9 -8 -14
-20 -11 -25 4 -5 1 -9 -4 -9 -6 0 -11 -7 -11 -15 0 -8 -4 -15 -10 -15 -5 0
-10 -6 -10 -13 0 -7 -19 -51 -43 -97 -32 -64 -53 -92 -86 -115 l-43 -30 -381
2 c-210 0 -389 3 -397 5 -55 13 -86 48 -145 159 -33 62 -59 117 -57 121 1 4
-2 8 -7 8 -8 0 -22 35 -18 44 1 2 -5 12 -14 22 -14 16 -40 65 -117 219 -8 17
-24 42 -34 58 -11 15 -16 27 -12 27 4 0 -1 9 -11 20 -10 11 -14 20 -9 20 5 0
4 4 -2 8 -6 4 -26 39 -44 77 -46 96 -45 140 5 247 21 46 42 85 47 86 4 2 8 9
8 15 0 7 7 26 16 42 9 17 47 89 84 160 37 72 78 150 91 175 13 25 23 47 24 50
0 3 7 16 14 30 8 14 30 54 49 90 38 72 84 126 110 129 9 1 204 3 432 4 l415 2
53 100 c28 55 55 107 58 115 4 8 11 27 18 43 6 15 14 27 17 27 12 0 17 50 6
57 -5 3 -274 6 -596 7 -569 1 -587 0 -623 -19z"/>
<path d="M2120 3248 c0 -5 -5 -8 -11 -8 -31 0 -71 -47 -115 -137 -27 -54 -57
-110 -67 -125 -10 -16 -15 -28 -12 -28 3 0 -2 -12 -13 -27 -10 -16 -45 -82
-78 -148 -32 -66 -62 -122 -65 -125 -6 -5 -32 -51 -34 -60 -4 -16 -31 -66 -40
-72 -5 -4 -6 -10 -2 -14 4 -4 1 -14 -7 -23 -18 -22 -166 -311 -159 -311 3 0
-1 -8 -9 -17 -42 -50 -72 -172 -51 -207 4 -6 8 -17 10 -25 1 -8 8 -18 15 -22
7 -5 9 -9 4 -9 -5 0 -3 -7 4 -15 7 -8 9 -15 5 -15 -4 0 5 -16 19 -35 15 -19
25 -35 23 -35 -3 0 25 -57 62 -127 37 -71 73 -142 80 -160 21 -51 39 -61 52
-27 9 25 34 72 134 249 13 22 23 44 23 49 0 5 6 12 13 17 10 6 4 25 -24 79
-20 40 -35 76 -32 80 3 5 1 11 -5 15 -5 3 -10 19 -10 35 0 16 5 32 10 35 6 4
8 10 5 15 -3 5 8 34 25 65 17 30 28 55 25 55 -4 0 1 7 9 16 9 8 16 21 16 28 0
7 9 23 20 36 11 13 20 31 20 41 0 9 3 19 8 21 4 2 25 39 46 83 21 44 48 92 58
108 11 15 16 27 12 27 -3 0 -2 6 4 13 20 26 82 146 82 160 0 9 3 17 8 19 4 2
22 34 41 72 33 66 71 102 121 114 8 2 183 5 388 6 420 1 427 0 475 -73 33 -49
102 -184 99 -193 -1 -5 3 -8 10 -8 6 0 8 -3 5 -7 -4 -3 3 -17 15 -30 12 -13
17 -23 12 -23 -5 0 -4 -4 1 -8 9 -6 125 -236 125 -247 0 -3 7 -13 15 -22 8
-10 14 -21 13 -24 -2 -4 5 -15 14 -25 9 -11 18 -26 20 -34 2 -8 5 -17 8 -20 3
-3 21 -36 40 -75 25 -53 33 -83 33 -125 0 -42 -8 -72 -33 -125 -19 -38 -39
-73 -45 -77 -5 -4 -7 -8 -2 -8 4 0 -3 -17 -16 -37 -34 -54 -147 -278 -147
-292 0 -6 -4 -11 -10 -11 -5 0 -10 -7 -10 -15 0 -8 -5 -15 -11 -15 -5 0 -8 -4
-5 -9 3 -5 -1 -14 -9 -21 -8 -7 -12 -16 -9 -21 3 -5 0 -9 -5 -9 -6 0 -10 -3
-9 -7 1 -5 -16 -42 -37 -83 -22 -41 -46 -87 -53 -102 -21 -41 -81 -76 -125
-73 -20 2 -37 0 -37 -4 0 -8 -707 -8 -715 1 -4 3 -19 2 -33 -3 -21 -7 -38 -33
-80 -117 -29 -59 -52 -113 -52 -119 0 -7 -4 -13 -9 -13 -5 0 -12 -12 -16 -27
-3 -15 -11 -31 -17 -34 -6 -4 -4 -11 4 -20 12 -12 112 -14 604 -13 324 1 595
3 603 5 25 7 114 103 104 112 -2 3 8 25 23 48 15 24 27 50 27 56 0 7 4 13 7
13 4 0 14 15 21 32 7 18 19 39 26 46 7 7 13 20 13 28 0 7 21 51 46 96 25 46
45 85 45 88 -1 3 6 13 14 23 8 9 12 17 10 17 -3 0 5 19 19 43 13 24 29 54 36
68 7 13 17 31 21 39 34 64 69 138 69 147 0 6 7 13 15 17 8 3 14 9 13 14 -3 9
82 183 93 192 3 3 12 22 18 42 7 20 17 38 24 41 8 2 12 29 12 78 0 65 -4 82
-35 142 -19 37 -82 159 -138 272 -57 113 -109 205 -115 205 -6 0 -7 3 -4 6 3
4 1 16 -5 28 -7 11 -13 23 -13 26 0 3 -8 16 -17 30 -9 14 -18 32 -20 40 -2 8
-11 23 -20 34 -10 10 -25 41 -34 68 -8 26 -19 48 -22 48 -4 0 -15 20 -25 45
-11 25 -23 45 -29 45 -5 0 -6 5 -3 11 4 5 0 18 -8 27 -8 9 -29 47 -47 84 -38
81 -84 134 -125 144 -39 10 -1215 11 -1215 2z"/>
</g>
</svg>
