<?xml version="1.0" standalone="no"?>
<!DOCTYPE svg PUBLIC "-//W3C//DTD SVG 20010904//EN"
 "http://www.w3.org/TR/2001/REC-SVG-20010904/DTD/svg10.dtd">
<svg version="1.0" xmlns="http://www.w3.org/2000/svg"
 width="1024.000000pt" height="1024.000000pt" viewBox="0 0 1024.000000 1024.000000"
 preserveAspectRatio="xMidYMid meet">
<metadata>
Created by potrace 1.11, written by Peter Selinger 2001-2013
</metadata>
<g transform="translate(0.000000,1024.000000) scale(0.100000,-0.100000)"
fill="#000000" stroke="none">
<path d="M4858 10236 c-1 -2 -50 -6 -108 -10 -58 -3 -116 -8 -130 -11 -14 -2
-52 -6 -85 -10 -33 -3 -76 -7 -95 -10 -58 -7 -294 -46 -300 -50 -3 -2 -26 -6
-50 -10 -94 -14 -412 -99 -582 -156 -339 -113 -631 -243 -928 -414 -112 -64
-327 -198 -365 -227 -5 -5 -78 -59 -161 -121 -391 -290 -731 -629 -1023 -1017
-39 -52 -75 -100 -79 -105 -52 -64 -269 -412 -322 -515 -19 -36 -43 -78 -54
-95 -12 -16 -19 -30 -18 -30 2 0 -25 -61 -61 -135 -58 -123 -176 -397 -182
-424 -1 -6 -7 -24 -14 -41 -28 -69 -141 -444 -155 -517 -2 -13 -11 -52 -20
-88 -8 -36 -17 -76 -20 -90 -2 -14 -9 -47 -15 -75 -6 -27 -13 -66 -16 -85 -12
-77 -34 -238 -40 -285 -3 -27 -8 -63 -10 -80 -26 -193 -26 -857 0 -1016 2 -13
6 -51 10 -84 3 -33 8 -76 10 -95 11 -75 27 -176 31 -200 3 -14 7 -38 9 -55 3
-16 7 -39 9 -50 2 -11 12 -54 20 -95 16 -72 51 -210 95 -370 120 -441 378
-986 673 -1422 69 -103 278 -383 297 -398 3 -3 31 -34 61 -70 176 -210 422
-446 700 -673 125 -102 457 -331 585 -402 172 -97 215 -120 312 -169 235 -117
511 -228 748 -302 130 -40 351 -100 394 -108 14 -2 82 -16 151 -29 69 -14 161
-31 205 -37 44 -6 91 -13 105 -16 14 -2 52 -6 85 -9 33 -3 69 -8 80 -10 126
-26 863 -26 1026 0 21 3 50 6 179 20 14 1 39 5 55 9 17 4 46 8 65 10 39 4 56
8 197 36 188 37 279 60 498 126 344 103 721 267 1045 452 91 52 260 160 393
252 40 27 262 194 287 216 14 12 72 62 130 111 185 159 403 382 571 583 409
490 718 1042 918 1638 63 190 113 359 125 422 2 14 7 32 10 40 3 8 7 26 10 40
2 14 12 59 21 100 9 41 18 91 21 110 3 19 7 42 9 50 2 8 7 35 10 60 3 25 10
70 15 100 5 30 12 84 16 120 3 36 8 73 10 84 25 131 24 905 -1 1031 -2 11 -7
47 -10 80 -8 81 -30 235 -41 290 -2 11 -6 34 -9 50 -18 103 -89 408 -115 490
-128 406 -196 577 -355 890 -175 345 -344 606 -589 910 -175 217 -429 479
-636 655 -35 30 -73 63 -85 73 -33 31 -316 241 -380 284 -689 459 -1400 730
-2195 838 -25 3 -56 8 -70 10 -14 2 -61 7 -105 11 -44 3 -98 8 -120 11 -49 4
-642 13 -647 9z"/>
</g>
</svg>
